# xmcd
#
# Track frame offsets:
#	150
#	21026
#	40092
#	67912
#	95756
#	124396
#	135276
#	154281
#	179797
#	202598
#	224475
#	251068
#	275963
#	300106
#	322996
#	336003
#
# Disc length: 4581 seconds
#
# Revision: 2
# Processed by: cddbd v1.4PL0 Copyright (c) Steve Scherf et al.
# Submitted via: audiograbber 1.81.03
#
DISCID=e611e310
DTITLE=Various Artist - Pacha 2 - CD 2
DYEAR=2002
DGENRE=House
TTITLE0=Praise Cats - Shined On Me (E-Smoove Vocal mix)
TTITLE1=Psycho Radio - In The Underground
TTITLE2=2-Aly-Us - Follow Me (Full Intention Dub mix)
TTITLE3=Sugarbabes - Freak Like Me (Different Gear mix)
TTITLE4=Todd Terry - Set U Free (In House mix)
TTITLE5=Modjo Band - On Fire (Armand Van Helden Rmx)
TTITLE6=Swinners - I Want To Love U
TTITLE7=Boy George - Generations Of Love
TTITLE8=Kosheen - Catch (Gordon Kaye Vocal Remix)
TTITLE9=Ad Finem - If You Fall (M.A.S. Collective mix)
TTITLE10=Felix Da Housecat - What Does It Feels Like (Röyksopp mix) 
TTITLE11=Live Element - Be Free
TTITLE12=Joe Jackson - Steppin` Out (JCA House Rmx 2002)
TTITLE13=Timo Maas - Shifter (Roger S mix)
TTITLE14=MV - Hollow (Original Deriation mix)
TTITLE15=Frankie Goes To Hollywood - Relax (Club 69 Future Anthem Past One)
EXTD=
EXTT0=
EXTT1=
EXTT2=
EXTT3=
EXTT4=
EXTT5=
EXTT6=
EXTT7=
EXTT8=
EXTT9=
EXTT10=
EXTT11=
EXTT12=
EXTT13=
EXTT14=
EXTT15=
PLAYORDER=
